<?xml version="1.0" encoding="UTF-8"?>
<svg id="Camada_2" data-name="Camada 2" xmlns="http://www.w3.org/2000/svg" viewBox="0 0 808.25 1235.67">
  <defs>
    <style>
      .cls-1 {
        fill: #e1d8d0;
        stroke-width: 0px;
      }
    </style>
  </defs>
  <g id="Camada_1-2" data-name="Camada 1">
    <g>
      <path class="cls-1" d="M0,677.79c0-63.53,39.55-105.61,100.14-105.61,33.66,0,55.54,12.62,64.79,34.08h.42v-114.44h63.95v291.57h-63.95c.42-4.21,1.26-22.3,2.52-44.6h-.84c-7.99,29.45-31.56,47.97-69.42,47.97-60.17,0-97.61-43.76-97.61-108.97ZM165.35,681.15v-10.1c0-29.87-21.04-50.07-52.17-50.07s-49.65,22.72-49.65,57.22,19.35,59.75,48.81,59.75c31.98,0,53.01-22.72,53.01-56.8Z"/>
      <path class="cls-1" d="M461.97,691.67h-147.68c2.95,34.08,20.2,48.81,48.81,48.81,24.82,0,40.81-8.84,42.49-29.03h56.38c-1.26,47.54-40.81,75.31-100.14,75.31-69,0-111.92-39.13-111.92-105.19s42.92-109.39,113.18-109.39c58.06,0,98.87,33.24,98.87,101.4v18.09ZM405.59,654.23c0-23.56-15.99-35.76-42.49-35.76s-42.07,11.78-47.12,39.13h89.62v-3.37Z"/>
      <g>
        <path class="cls-1" d="M75.49,992.06l-29.64-81.44-28.86,10.5L0,874.47l23.33-8.49c9.09-3.31,10.39-9.6,7.25-21.89l-7.16-28.29,49.42-17.99,16.12,44.28,62.47-22.74,16.98,46.65-62.47,22.74,28.49,78.28c7.34,20.16,19.13,23.04,42.85,14.4,8.3-3.02,20.13-8.67,26.27-12.7l16.55,45.47c-4.71,3.06-20.16,12.26-36.37,18.16-60.89,22.16-92.42,3.19-108.25-40.3Z"/>
        <path class="cls-1" d="M211.56,955.07c-11.66-32.02,2.79-63.7,54.58-82.55l63.65-23.17-4.75-13.05c-8.63-23.72-25.53-28.32-53.21-18.24-22.54,8.2-32.13,22.44-26.37,38.25.43,1.19,1.58,4.35,3.42,8.16l-55.35,20.15c-1.55-3.02-3.53-7.22-4.96-11.18-14.39-39.54,11.91-75.53,71.22-97.11,62.07-22.59,108.52-8.16,127.51,44.03l43.17,118.61-60.1,21.87c-2.41-10.32-7.31-28.68-11.62-40.54l-.4.14c4.14,29.83-12.53,52.92-48.11,65.87-45.47,16.55-84.29,8.29-98.68-31.24ZM343.03,885.73l-1.44-3.95-58.12,21.15c-16.21,5.9-23.36,17.01-19.33,28.08,5.47,15.02,21.39,18.18,43.14,10.27,31.23-11.37,44.38-31.83,35.75-55.55Z"/>
      </g>
      <g>
        <path class="cls-1" d="M477.95,713.39h57.22c0,19.35,9.68,31.98,46.28,31.98,33.24,0,45.02-9.68,45.02-24.82,0-7.57-3.79-13.46-14.73-15.99-10.94-2.52-27.77-4.21-48.39-5.89-29.87-2.52-53.01-7.15-65.63-15.99-11.78-8.42-19.78-23.56-19.78-40.81,0-45.02,46.28-69.84,103.92-69.84,68.16,0,99.29,26.09,99.29,74.47h-56.38c-.42-21.88-10.52-33.24-42.07-33.24-28.61,0-41.23,9.68-41.23,23.98,0,8.84,3.37,15.57,15.15,18.51,10.52,2.52,29.03,4.21,51.33,6.31,25.66,2.52,43.76,5.05,59.32,13.88,13.46,7.57,23.14,23.14,23.14,41.23,0,43.76-37.45,69.42-108.55,69.42s-103.92-31.14-103.92-73.21Z"/>
        <g>
          <path class="cls-1" d="M0,1128.8c0-67.74,44.18-107.71,108.13-107.71s100.98,34.08,100.98,91.72h-56.38c-.42-26.93-16.41-42.92-42.49-42.92-29.87,0-46.28,20.62-46.28,58.48s16.83,58.48,45.02,58.48,43.76-15.57,44.18-42.07h56.38c0,59.75-42.49,90.88-103.92,90.88S0,1196.12,0,1128.8Z"/>
          <path class="cls-1" d="M225.51,1128.8c0-67.74,44.18-107.71,108.13-107.71s100.98,34.08,100.98,91.72h-56.38c-.42-26.93-16.41-42.92-42.49-42.92-29.87,0-46.28,20.62-46.28,58.48s16.83,58.48,45.02,58.48,43.76-15.57,44.18-42.07h56.38c0,59.75-42.49,90.88-103.92,90.88s-105.61-39.55-105.61-106.87Z"/>
          <path class="cls-1" d="M451.02,1128.8c0-67.74,44.6-107.71,113.18-107.71s113.18,39.97,113.18,107.71-44.6,106.87-113.18,106.87-113.18-39.55-113.18-106.87ZM613.43,1128.8c0-37.03-18.09-58.9-49.23-58.9s-49.23,21.88-49.23,58.9,18.09,58.06,49.23,58.06,49.23-21.46,49.23-58.06Z"/>
        </g>
      </g>
      <path class="cls-1" d="M724.3,532.74c0-24.62,19.57-40.92,41.97-40.92s41.97,16.31,41.97,40.92-19.56,40.92-41.97,40.92-41.97-16.31-41.97-40.92ZM802.33,532.74c0-21.74-16.95-35.59-36.06-35.59s-35.94,13.85-35.94,35.59,16.83,35.59,35.94,35.59,36.06-13.85,36.06-35.59ZM750.01,511.1h16.49c10.92,0,16.38,4.62,16.38,11.69,0,4.62-1.48,7.8-5.46,9.54v.21c4.09,1.44,5.46,4.41,5.46,8.1v12.82h-8.3v-12.41c0-3.28-1.71-5.03-5.8-5.03h-10.47v17.44h-8.3v-42.36ZM767.07,529.87c5.46,0,7.51-2.05,7.51-6.05,0-3.69-1.71-5.95-8.08-5.95h-8.19v12h8.76Z"/>
      <path class="cls-1" d="M7.05,463H0V73.91C0,33.16,32.83,0,73.19,0h227.66c23.13,0,44.8,12.49,56.57,32.59l78.16,133.54c12.35,21.11,12.2,47.24-.39,68.19l-77.68,129.27c-5.84,9.72-14.12,17.82-23.94,23.4-9.82,5.58-20.97,8.53-32.24,8.53H70.54c-35.01,0-63.49,28.79-63.49,64.18v3.29ZM73.19,6.59C36.47,6.59,6.59,36.79,6.59,73.91v356.86c10.97-24.64,35.51-41.84,63.96-41.84h230.79c20.52,0,39.88-11.01,50.53-28.74l77.68-129.27c11.35-18.89,11.49-42.45.35-61.47l-78.16-133.54c-10.59-18.09-30.09-29.33-50.89-29.33H73.19Z"/>
    </g>
  </g>
</svg>